<svg width="512" height="512" viewBox="0 0 512 512" fill="none" xmlns="http://www.w3.org/2000/svg">
<rect width="512" height="512" fill="#0DA1E7"/>
<path d="M251.289 455.524C245.818 453.176 222.157 441.383 214.687 437.286C192.926 425.368 173.413 412.251 157.098 398.735C149.253 392.189 134.562 377.598 128.941 370.677C112.401 350.415 100.634 327.779 94.8872 304.844C90.8397 288.879 90.8397 288.779 91.0895 192.264C91.2894 114.638 91.3894 109.591 92.1639 108.716C93.638 107.117 94.2126 106.967 111.002 103.994C116.624 103.02 134.662 99.2223 142.482 97.3985C164.294 92.2767 183.707 86.3304 207.866 77.1861C210.94 76.0118 220.109 72.1643 223.981 70.3654C234.125 65.7183 239.896 62.8951 249.216 58.0231C252.588 56.2742 255.562 55 256.436 55C257.36 55 261.458 56.8488 267.329 59.822C307.204 80.509 349.028 94.0755 403.369 104.044C411.414 105.568 418.41 106.967 418.884 107.317C421.183 108.741 421.083 104.394 420.933 199.46C420.833 276.411 420.733 289.728 420.109 294.125C417.135 314.662 407.367 338.148 393.325 358.285C385.081 370.203 371.264 385.318 359.372 395.562C345.905 407.18 345.18 407.754 331.664 416.973C328.391 419.172 324.793 421.67 323.669 422.495C321.046 424.394 311.701 429.915 307.954 431.814C306.355 432.639 302.932 434.637 300.384 436.261C297.835 437.86 294.962 439.434 293.988 439.784C293.013 440.184 291.364 440.958 290.34 441.633C288.041 443.057 267.454 453.151 262.182 455.449C257.485 457.448 255.786 457.498 251.339 455.549L251.289 455.524ZM259.234 431.664C279.971 422.345 312.326 403.407 328.391 391.264C346.055 377.898 362.694 361.458 372.838 347.292C385.58 329.678 394.699 308.117 396.948 290.677C397.298 287.804 397.448 261.546 397.348 206.005L397.198 125.481L395.249 125.131C394.175 124.931 390.227 124.207 386.455 123.532C344.481 115.812 300.334 101.671 265.006 84.5315L256.311 80.2842L244.743 85.7558C233.026 91.3273 220.683 96.6989 212.738 99.6221C210.34 100.546 207.117 101.721 205.668 102.295C204.194 102.87 201.57 103.769 199.871 104.294C198.123 104.794 195.274 105.718 193.525 106.343C185.231 109.366 160.596 116.287 149.603 118.685C146.48 119.36 141.658 120.434 138.81 121.084C132.863 122.458 121.67 124.556 117.923 125.031C115.774 125.331 115.249 125.556 114.85 126.555C114.275 128.129 114.275 273.338 114.85 282.857C115.624 295.35 119.097 308.616 124.943 321.708C143.057 361.908 181.983 396.211 244.893 427.367C250.79 430.29 255.861 432.689 256.261 432.689C256.661 432.689 257.96 432.189 259.234 431.664Z" fill="white"/>
<path d="M217.947 294.758C207.856 284.725 187.862 261.29 182.55 241.468C175.73 216.015 176.009 194.803 179.28 191.531C182.551 188.26 202.83 169.288 208.282 169.506C213.734 169.724 247.102 198.723 247.102 206.573C247.102 212.853 229.954 227.085 224.419 234.054C227.137 240.243 239.032 261.316 244.804 267.901C251.389 273.673 272.462 285.568 278.651 288.285C285.62 282.751 299.851 265.602 306.131 265.602C313.981 265.602 342.979 298.971 343.198 304.423C343.415 309.874 324.445 330.154 321.174 333.425C317.903 336.696 296.69 336.974 271.236 330.154C251.414 324.842 227.98 304.849 217.947 294.758Z" fill="white"/>
</svg>
